<?xml version="1.0" standalone="no"?>
<svg xmlns:xlink="http://www.w3.org/1999/xlink" id="wave" style="transform:rotate(0deg); transition: 0.3s" viewBox="0 0 1440 360" version="1.1" xmlns="http://www.w3.org/2000/svg"><defs><linearGradient id="sw-gradient-0" x1="0" x2="0" y1="1" y2="0"><stop stop-color="rgba(27, 67, 28, 1)" offset="0%"/><stop stop-color="rgba(34, 183, 15, 1)" offset="100%"/></linearGradient></defs><path style="transform:translate(0, 0px); opacity:1" fill="url(#sw-gradient-0)" d="M0,144L30,132C60,120,120,96,180,120C240,144,300,216,360,246C420,276,480,264,540,240C600,216,660,180,720,180C780,180,840,216,900,228C960,240,1020,228,1080,234C1140,240,1200,264,1260,246C1320,228,1380,168,1440,138C1500,108,1560,108,1620,96C1680,84,1740,60,1800,78C1860,96,1920,156,1980,156C2040,156,2100,96,2160,90C2220,84,2280,132,2340,138C2400,144,2460,108,2520,120C2580,132,2640,192,2700,198C2760,204,2820,156,2880,138C2940,120,3000,132,3060,132C3120,132,3180,120,3240,144C3300,168,3360,228,3420,210C3480,192,3540,96,3600,72C3660,48,3720,96,3780,150C3840,204,3900,264,3960,240C4020,216,4080,108,4140,66C4200,24,4260,48,4290,60L4320,72L4320,360L4290,360C4260,360,4200,360,4140,360C4080,360,4020,360,3960,360C3900,360,3840,360,3780,360C3720,360,3660,360,3600,360C3540,360,3480,360,3420,360C3360,360,3300,360,3240,360C3180,360,3120,360,3060,360C3000,360,2940,360,2880,360C2820,360,2760,360,2700,360C2640,360,2580,360,2520,360C2460,360,2400,360,2340,360C2280,360,2220,360,2160,360C2100,360,2040,360,1980,360C1920,360,1860,360,1800,360C1740,360,1680,360,1620,360C1560,360,1500,360,1440,360C1380,360,1320,360,1260,360C1200,360,1140,360,1080,360C1020,360,960,360,900,360C840,360,780,360,720,360C660,360,600,360,540,360C480,360,420,360,360,360C300,360,240,360,180,360C120,360,60,360,30,360L0,360Z"/></svg>